<?xml version="1.0" encoding="UTF-8"?>
<svg id="Lager_1" xmlns="http://www.w3.org/2000/svg" viewBox="0 0 125 125">
  <defs>
    <style>
      .cls-1 {
        fill: #f8ce24;
      }

      .cls-2 {
        fill: #007f58;
      }

      .cls-3 {
        fill: #43b65c;
      }
    </style>
  </defs>
  <path class="cls-2" d="M112.62,86.51c10.18,0,9.69-4.34,10.96-4.38,1.28-.04,1.11,1,.85,2.73,0,.28-.08.77-.3,1.9-3.52,22.42-22.12,37.04-44.24,36.99h-18.51c-15.24,0-23.34-10.46-23.34-23.34.03-1.97.26-3.93.68-5.86,1.27-4.93,5.58-8.04,10.91-8.04h62.99Z"/>
  <path class="cls-3" d="M113.38,35.26c6.32,0,11.45-5.11,11.45-11.43h0V5.82c0-1.79.11-2.88-1.13-2.77-1.24.11-.88,4.38-11.06,4.38h-44.56c-5.21.02-9.77,3.53-11.1,8.57,0,0-5.18,20.15-5.38,20.93-.46,1.72-.2,2.75.94,2.71s.88-4.39,11.05-4.38h49.8Z"/>
  <path class="cls-1" d="M113.38,74.8c6.31.01,11.44-5.1,11.45-11.41,0,0,0-.01,0-.02v-18.01c0-1.78.11-2.88-1.13-2.77-1.24.11-.88,4.39-11.06,4.38h-53.67c-5.25,0-9.85,3.52-11.18,8.6,0,0-5.18,20.15-5.38,20.93-.46,1.73-.2,2.75.94,2.71,1.14-.04.88-4.41,11.06-4.41h58.98Z"/>
  <path class="cls-2" d="M26.08,100.9c-.01-2.09.21-4.18.67-6.22L43.56,21.98c.3-1.03.46-2.09.46-3.16.01-6.28-5.07-11.38-11.35-11.39-.02,0-.03,0-.05,0H12.48C2.3,7.42,2.68,3.16,1.42,3.04.16,2.92.16,4.14.16,5.93v76.15c0,16.37,13.95,36.7,34.44,40.8,1.75.34,2.77.68,2.93-.58.08-.61-2.3-1.84-4.44-3.23-4.66-2.99-7.25-10.59-7.02-18.17Z"/>
</svg>