<?xml version="1.0" encoding="UTF-8"?>
<svg id="Lager_1" xmlns="http://www.w3.org/2000/svg" viewBox="0 0 512 512">
  <defs>
    <style>
      .cls-1 {
        fill: #f8ce24;
      }

      .cls-2 {
        fill: #007f58;
      }

      .cls-3 {
        fill: #43b65c;
      }
    </style>
  </defs>
  <path class="cls-2" d="M429.46,339.67c35.22,0,33.53-15,37.94-15.14,4.42-.14,3.83,3.45,2.93,9.45,0,.97-.28,2.66-1.03,6.59-12.18,77.57-76.54,128.17-153.11,128h-64.05c-52.74,0-80.78-36.18-80.78-80.78.11-6.82.9-13.62,2.35-20.28,4.38-17.07,19.32-27.84,37.77-27.84h217.99Z"/>
  <path class="cls-3" d="M432.08,162.31c21.87.02,39.61-17.69,39.63-39.56h0v-62.33c0-6.21.38-9.97-3.9-9.59-4.28.38-3.04,15.14-38.29,15.14h-154.22c-18.04.07-33.79,12.23-38.42,29.66,0,0-17.94,69.74-18.63,72.43-1.59,5.97-.69,9.52,3.24,9.38,3.93-.14,3.04-15.18,38.25-15.14h172.33Z"/>
  <path class="cls-1" d="M432.08,299.14c21.85.04,39.59-17.64,39.63-39.49,0-.02,0-.05,0-.07v-62.33c0-6.17.38-9.97-3.9-9.59-4.28.38-3.04,15.18-38.29,15.14h-185.74c-18.17-.03-34.07,12.2-38.7,29.77,0,0-17.94,69.74-18.63,72.43-1.59,6-.69,9.52,3.24,9.38,3.93-.14,3.04-15.25,38.29-15.25h204.09Z"/>
  <path class="cls-2" d="M129.96,389.44c-.05-7.24.72-14.46,2.31-21.52l58.19-251.59c1.05-3.55,1.58-7.23,1.59-10.93.04-21.74-17.55-39.39-39.29-39.43-.06,0-.12,0-.17,0h-69.68c-35.25,0-33.94-14.76-38.29-15.18-4.35-.41-4.35,3.83-4.35,10v263.52c0,56.64,48.29,127,119.17,141.18,6.07,1.17,9.59,2.35,10.14-2,.28-2.1-7.97-6.38-15.35-11.18-16.14-10.35-25.08-36.63-24.28-62.88Z"/>
</svg>